HIERARCHY
ROOT Hips
{
  OFFSET 0 0 0
  CHANNELS 6 Xposition Yposition Zposition Zrotation Xrotation Yrotation
  JOINT LeftUpLeg
  {
    OFFSET 4.06525 -3.90732 0.41711
    CHANNELS 3 Zrotation Xrotation Yrotation
    JOINT LeftLeg
    {
      OFFSET 0.00023 -18.4821 0.00367
      CHANNELS 3 Zrotation Xrotation Yrotation
      JOINT LeftFoot
      {
        OFFSET -0.00172 -15.2898 -0.02629
        CHANNELS 3 Zrotation Xrotation Yrotation
        JOINT LeftToeBase
        {
          OFFSET 0.36743 -3.19131 5.54287
          CHANNELS 3 Zrotation Xrotation Yrotation
          JOINT LeftToeBase2
          {
            OFFSET 0.08751 0.04849 1.36758
            CHANNELS 3 Zrotation Xrotation Yrotation
            JOINT LeftToeBase3
            {
              OFFSET 0.07484 0.06785 1.16707
            }
          }
        }
      }
    }
  }
  JOINT RightUpLeg
  {
    OFFSET -4.06526 -3.90731 0.41712
    CHANNELS 3 Zrotation Xrotation Yrotation
    JOINT RightLeg
    {
      OFFSET -0.00029 -18.4821 0.0044
      CHANNELS 3 Zrotation Xrotation Yrotation
      JOINT RightFoot
      {
        OFFSET 0.0016 -15.2898 -0.02569
        CHANNELS 3 Zrotation Xrotation Yrotation
        JOINT RightToeBase
        {
          OFFSET -0.3542 -3.19109 5.54386
          CHANNELS 3 Zrotation Xrotation Yrotation
          JOINT RightToeBase2
          {
            OFFSET -0.08424 0.04854 1.36778
            CHANNELS 3 Zrotation Xrotation Yrotation
            JOINT RightToeBase3
            {
              OFFSET -0.07205 0.0679 1.16725
            }
          }
        }
      }
    }
  }
  JOINT Spine
  {
    OFFSET 1e-005 4.46517 -0.10224
    CHANNELS 3 Zrotation Xrotation Yrotation
    JOINT Spine1
    {
      OFFSET 1e-005 4.46212 -0.1824
      CHANNELS 3 Zrotation Xrotation Yrotation
      JOINT Spine2
      {
        OFFSET 0 4.37937 -0.881
        CHANNELS 3 Zrotation Xrotation Yrotation
        JOINT Spine3
        {
          OFFSET 1e-005 4.68286 0.21414
          CHANNELS 3 Zrotation Xrotation Yrotation
          JOINT Neck
          {
            OFFSET 0 1.76964 0.82454
            CHANNELS 3 Zrotation Xrotation Yrotation
            JOINT Head
            {
              OFFSET 0 1.6961 0.93145
              CHANNELS 3 Zrotation Xrotation Yrotation
              JOINT Head_End
              {
                OFFSET 1e-005 7.8375 1.52603
              }
            }
          }
          JOINT LeftShoulder
          {
            OFFSET 1.19381 -0.75881 -0.02768
            CHANNELS 3 Zrotation Xrotation Yrotation
            JOINT LeftArm
            {
              OFFSET 5.18779 -2e-005 1e-005
              CHANNELS 3 Zrotation Xrotation Yrotation
              JOINT LeftForeArm
              {
                OFFSET 12.7364 -4e-005 2e-005
                CHANNELS 3 Zrotation Xrotation Yrotation
                JOINT LeftHand
                {
                  OFFSET 9.21452 -2e-005 1e-005
                  CHANNELS 3 Zrotation Xrotation Yrotation
                }
              }
            }
          }
          JOINT RightShoulder
          {
            OFFSET -1.19381 -0.75881 -0.02767
            CHANNELS 3 Zrotation Xrotation Yrotation
            JOINT RightArm
            {
              OFFSET -5.18779 1e-005 -1e-005
              CHANNELS 3 Zrotation Xrotation Yrotation
              JOINT RightForeArm
              {
                OFFSET -12.7364 3e-005 -2e-005
                CHANNELS 3 Zrotation Xrotation Yrotation
                JOINT RightHand
                {
                  OFFSET -9.21452 2e-005 -1e-005
                  CHANNELS 3 Zrotation Xrotation Yrotation
                }
              }
            }
          }
        }
      }
    }
  }
}
MOTION
Frames: 6
Frame Time: 	0.0166667
-5.00921e-008 41.6068 -1.98257e-007 0.510562 6.86887 -0.0610628 -0.672052 -8.13587 2.12375  0.00568148 19.2486 -0.00687542  1.5292 -16.3882 5.89923  6.99662e-012 -1.7531e-011 9.24301e-011  -0 0 -0   -1.50671 1.96952 -11.2727  -0.00538439 6.68769 -0.0115081  1.21186 -14.1193 -0.262529  -3.76697e-014 -1.29381e-011 1.02101e-010  -0 0 -0   2.34446 0.00594725 0.265983  0.739607 2.18712 0.237452  0.333104 3.32667 0.304716  -0.198624 7.43499 0.49564  -1.91633 -8.72778 -5.29358  -2.94895 -21.6525 -5.80863   -7.01741 3.10477 -9.1845  -66.9106 23.687 -6.76734  -5.03741e-011 -1.22922e-010 -15.0576  -0.313201 2.75705 6.64033  4.2632 2.46721 9.31712  63.252 21.0011 7.42045  -1.58521e-011 1.53525e-011 31.6195  10.6432 7.43047 -5.65081 
0.0369488 41.5972 0.0952584 0.493489 6.72037 -0.102114 -0.75722 -7.76942 1.91648  0.00567081 19.1647 -0.00687191  1.62695 -16.5277 6.19129  6.99662e-012 -1.7531e-011 9.24301e-011  -0 0 -0   -1.52541 2.4391 -11.4011  -0.00545528 6.33691 -0.0115001  1.30486 -14.0245 -0.100894  -3.76697e-014 -1.29381e-011 1.02101e-010  -0 0 -0   2.30805 0.104321 0.265984  0.721257 2.20704 0.237455  0.314874 3.30184 0.304708  -0.233608 7.33087 0.495523  -1.98197 -8.6231 -5.35482  -2.9284 -21.9427 -5.88247   -7.04008 3.08997 -9.23259  -66.3368 23.2581 -7.05909  -5.03963e-011 -1.22916e-010 -15.0679  -0.250592 1.77393 5.83364  4.23626 2.47848 9.38351  63.4688 21.3133 7.26136  -1.5777e-011 1.53985e-011 31.3396  10.7662 7.69174 -5.53431 
0.0747547 41.5882 0.191577 0.475296 6.57322 -0.147004 -0.842641 -7.39323 1.70379  0.00565762 19.0607 -0.00686759  1.7284 -16.6582 6.49445  6.99662e-012 -1.7531e-011 9.24301e-011  -0 0 -0   -1.54609 2.88945 -11.5334  -0.00551832 6.02453 -0.0114933  1.38805 -13.9371 0.0665402  -3.76697e-014 -1.29381e-011 1.02101e-010  -0 0 -0   2.27245 0.201134 0.265985  0.703181 2.22637 0.237459  0.29668 3.27678 0.304701  -0.26835 7.22684 0.495409  -2.04291 -8.52301 -5.4143  -2.90913 -22.2065 -5.95396   -7.0646 3.0761 -9.27819  -65.7672 22.8428 -7.36416  -5.03734e-011 -1.22922e-010 -15.0573  -0.186067 0.758471 5.0326  4.21252 2.48742 9.44389  63.684 21.6101 7.10192  -1.56993e-011 1.54456e-011 31.051  10.9137 7.98366 -5.42259 
0.114126 41.5811 0.289926 0.456586 6.42646 -0.200104 -0.933076 -6.98604 1.48286  0.00563675 18.896 -0.00686081  1.83355 -16.7594 6.81687  6.99662e-012 -1.7531e-011 9.24301e-011  -0 0 -0   -1.57612 3.29595 -11.6792  -0.00556256 5.80511 -0.0114887  1.44523 -13.8625 0.25142  -3.76697e-014 -1.29381e-011 1.02101e-010  -0 0 -0   2.23691 0.297109 0.271315  0.685262 2.24545 0.237462  0.278474 3.25179 0.304693  -0.302271 7.12327 0.498958  -2.09448 -8.43665 -5.47126  -2.89352 -22.4127 -6.02122   -7.09893 3.06544 -9.31657  -65.2002 22.4541 -7.70388  -5.02183e-011 -1.22964e-010 -14.985  -0.121007 -0.314428 4.22939  4.19508 2.48944 9.49057  63.8971 21.8774 6.94248  -1.56159e-011 1.54955e-011 30.7422  11.1418 8.34796 -5.31978 
0.155997 41.5736 0.391545 0.431754 6.28847 -0.263723 -1.02477 -6.57349 1.23904  0.00561365 18.7133 -0.00685336  1.95065 -16.8589 7.17651  6.99662e-012 -1.7531e-011 9.24301e-011  -0 0 -0   -1.60995 3.65771 -11.8217  -0.00559022 5.66788 -0.011486  1.48796 -13.8138 0.442579  -3.76697e-014 -1.29381e-011 1.02101e-010  -0 0 -0   2.20682 0.383843 0.281124  0.668761 2.26098 0.241886  0.260524 3.22505 0.304685  -0.337414 7.01939 0.50553  -2.13287 -8.3548 -5.52104  -2.87529 -22.55 -6.07819   -7.1265 3.05483 -9.35197  -64.658 22.1075 -8.06765  -5.00124e-011 -1.23019e-010 -14.889  -0.0436047 -1.49885 3.47015  4.1877 2.48827 9.5226  64.1028 22.0952 6.78051  -1.55266e-011 1.55482e-011 30.4125  11.3794 8.78197 -5.23264 
0.201373 41.5644 0.497797 0.396786 6.166 -0.343522 -1.11874 -6.16988 0.943823  0.00559121 18.5354 -0.00684619  2.08613 -16.9738 7.61024  6.99662e-012 -1.7531e-011 9.24301e-011  -0 0 -0   -1.64919 3.95701 -11.9583  -0.00559538 5.64226 -0.0114855  1.52147 -13.8131 0.64533  -3.76697e-014 -1.29381e-011 1.02101e-010  -0 0 -0   2.1857 0.455015 0.298033  0.654717 2.27039 0.251109  0.242732 3.19493 0.311537  -0.374777 6.914 0.520892  -2.15577 -8.27532 -5.56026  -2.84746 -22.5905 -6.11962   -7.13547 3.04198 -9.38716  -64.1591 21.8233 -8.45453  -4.97868e-011 -1.23079e-010 -14.784  0.058327 -2.87208 2.79473  4.19355 2.48733 9.53332  64.2993 22.2395 6.61078  -1.54302e-011 1.56044e-011 30.0579  11.6023 9.35433 -5.16894 
